# File created by Blade
# Date/Time:  Thu Jan 22 16:10:14 2015
# Frame Rate: 120.000 fps
#------------------------------------------------------
:FULLY-SPECIFIED
:DEGREES
1229
root 4.139610 33.415113 -3.666691 56.522115 20.157914 23.125818
RightUpLeg -34.914433 -51.288663 -26.364843
RightLeg -7.967539 -0.000000 0.000000
RightFoot -0.047193 -32.681477 35.714069
RightToeBase 13.565737 -0.000000 -0.000000
LeftUpLeg -73.086125 -9.970782 4.208366
LeftLeg 17.083273 -0.000000 -0.000000
LeftFoot -0.016648 10.789292 -30.710368
LeftToeBase 8.022556 -0.000000 -0.000000
Spine 77.978978 17.333335 19.488873
RightShoulder 19.405377 -1.723523 -43.323786
RightArm 31.865453 20.808065 19.704819
RightForeArm -3.422109 -0.000000 18.599816
RightHand 11.758242 -0.000000 -12.996188
RightHandThumb1 -24.326973 -0.000000 -32.862282
LeftShoulder -38.173604 48.976660 -0.430090
LeftArm 11.516206 -25.967129 -66.526850
LeftForeArm 11.432768 -0.000000 0.856695
LeftHand -28.752578 -0.000000 11.130407
LeftHandThumb1 -26.253704 0.000000 33.147579
Head 36.163688 32.918501 -4.087260
1230
root 4.149913 33.411722 -3.660428 56.515842 20.170499 23.135857
RightUpLeg -34.865761 -51.306659 -26.399734
RightLeg -7.966483 -0.000000 0.000000
RightFoot -0.115355 -32.690883 35.807671
RightToeBase 13.654072 -0.000000 -0.000000
LeftUpLeg -73.139060 -9.987022 4.181615
LeftLeg 17.232044 -0.000000 -0.000000
LeftFoot -0.065698 10.748963 -30.692177
LeftToeBase 8.006645 -0.000000 -0.000000
Spine 77.982530 17.327708 19.501973
RightShoulder 19.418926 -1.707542 -43.305207
RightArm 31.809045 20.778618 19.714819
RightForeArm -3.424283 0.000000 18.631167
RightHand 11.773593 -0.000000 -13.043845
RightHandThumb1 -24.326973 -0.000000 -32.862282
LeftShoulder -38.173453 48.999372 -0.426015
LeftArm 11.489212 -25.991701 -66.521120
LeftForeArm 11.449421 -0.000000 0.842716
LeftHand -28.769531 -0.000000 11.125913
LeftHandThumb1 -26.253704 0.000000 33.147579
Head 36.190832 32.882578 -4.034428
1231
root 4.159914 33.407481 -3.654741 56.514553 20.186412 23.151808
RightUpLeg -34.816272 -51.335975 -26.434852
RightLeg -7.966156 -0.000000 0.000000
RightFoot -0.035304 -32.702491 35.735370
RightToeBase 13.578272 -0.000000 -0.000000
LeftUpLeg -73.198961 -10.019120 4.180191
LeftLeg 17.380361 -0.000000 -0.000000
LeftFoot -0.127267 10.714084 -30.705236
LeftToeBase 7.971410 -0.000000 -0.000000
Spine 77.977466 17.318742 19.503201
RightShoulder 19.441048 -1.702181 -43.273729
RightArm 31.740886 20.777211 19.725666
RightForeArm -3.483832 -0.000000 18.705202
RightHand 11.792221 -0.000000 -13.256827
RightHandThumb1 -24.326973 -0.000000 -32.862282
LeftShoulder -38.183473 49.016759 -0.434787
LeftArm 11.453922 -25.999053 -66.492748
LeftForeArm 11.411914 0.000000 0.816730
LeftHand -28.666739 -0.000000 11.127736
LeftHandThumb1 -26.253704 0.000000 33.147579
Head 36.194873 32.864235 -3.991961
1232
root 4.170372 33.403462 -3.648864 56.513566 20.191207 23.168761
RightUpLeg -34.763019 -51.360117 -26.477845
RightLeg -7.981706 -0.000000 0.000000
RightFoot -0.076327 -32.703303 35.811357
RightToeBase 13.646154 -0.000000 -0.000000
LeftUpLeg -73.258926 -10.067841 4.210856
LeftLeg 17.518155 -0.000000 -0.000000
LeftFoot -0.222613 10.727034 -30.716621
LeftToeBase 7.964662 -0.000000 -0.000000
Spine 77.987454 17.315646 19.509212
RightShoulder 19.430316 -1.709251 -43.257874
RightArm 31.711201 20.838683 19.805238
RightForeArm -3.554970 0.000000 18.782499
RightHand 11.765020 -0.000000 -13.079850
RightHandThumb1 -24.326973 -0.000000 -32.862282
LeftShoulder -38.207585 49.041308 -0.473114
LeftArm 11.451369 -26.032980 -66.467977
LeftForeArm 11.347454 -0.000000 0.800336
LeftHand -28.651292 0.000000 11.203913
LeftHandThumb1 -26.253704 0.000000 33.147579
Head 36.185056 32.870673 -3.955973
1233
root 4.180611 33.398854 -3.644160 56.518909 20.192929 23.187634
RightUpLeg -34.691588 -51.365496 -26.552252
RightLeg -7.986556 -0.000000 0.000000
RightFoot -0.005690 -32.717271 35.738060
RightToeBase 13.556981 -0.000000 -0.000000
LeftUpLeg -73.330306 -10.117646 4.245325
LeftLeg 17.660234 -0.000000 -0.000000
LeftFoot -0.305857 10.742609 -30.744152
LeftToeBase 7.920741 -0.000000 -0.000000
Spine 77.990581 17.315379 19.504438
RightShoulder 19.421868 -1.688343 -43.252124
RightArm 31.647311 20.802153 19.849650
RightForeArm -3.537719 -0.000000 18.860178
RightHand 11.822621 0.000000 -13.150978
RightHandThumb1 -24.326973 -0.000000 -32.862282
LeftShoulder -38.238939 49.052430 -0.513081
LeftArm 11.437788 -26.011249 -66.427284
LeftForeArm 11.290498 -0.000000 0.797378
LeftHand -28.731854 -0.000000 11.388620
LeftHandThumb1 -26.253704 0.000000 33.147579
Head 36.156414 32.891875 -3.930067
1234
root 4.189115 33.394210 -3.639136 56.519445 20.185053 23.189723
RightUpLeg -34.638110 -51.353985 -26.601646
RightLeg -8.012207 -0.000000 0.000000
RightFoot 0.029884 -32.742668 35.702200
RightToeBase 13.490851 -0.000000 -0.000000
LeftUpLeg -73.400783 -10.140222 4.266492
LeftLeg 17.804138 -0.000000 -0.000000
LeftFoot -0.380157 10.742328 -30.735777
LeftToeBase 7.838630 -0.000000 -0.000000
Spine 77.999705 17.335025 19.492986
RightShoulder 19.418700 -1.677804 -43.248347
RightArm 31.586570 20.841445 19.946903
RightForeArm -3.659434 -0.000000 18.974604
RightHand 11.866770 -0.000000 -13.433917
RightHandThumb1 -24.326973 -0.000000 -32.862282
LeftShoulder -38.259981 49.063946 -0.537711
LeftArm 11.408522 -26.002854 -66.405962
LeftForeArm 11.286018 -0.000000 0.821113
LeftHand -28.747214 0.000000 11.431165
LeftHandThumb1 -26.253704 0.000000 33.147579
Head 36.101951 32.911709 -3.919418
